<?xml version="1.0" standalone="no"?>
<!DOCTYPE svg PUBLIC "-//W3C//DTD SVG 20010904//EN"
 "http://www.w3.org/TR/2001/REC-SVG-20010904/DTD/svg10.dtd">
<svg version="1.0" xmlns="http://www.w3.org/2000/svg"
 width="700.000000pt" height="700.000000pt" viewBox="0 0 700.000000 700.000000"
 preserveAspectRatio="xMidYMid meet">
<metadata>
Created by potrace 1.14, written by Peter Selinger 2001-2017
</metadata>
<g transform="translate(0.000000,700.000000) scale(0.100000,-0.100000)"
fill="#000000" stroke="none">
<path d="M3035 6029 c-42 -15 -74 -34 -108 -67 -90 -88 -127 -191 -127 -351 0
-96 5 -131 25 -198 6 -20 -2 -24 -113 -60 l-119 -38 -6 -470 c-3 -258 -10
-569 -16 -690 -10 -200 -29 -645 -35 -852 -3 -92 -2 -93 61 -69 21 8 99 33
173 56 74 23 146 45 160 50 14 4 66 20 115 35 50 15 108 33 130 40 47 16 206
66 395 125 74 23 176 55 225 70 109 35 367 115 530 165 66 21 124 41 128 45 5
4 -8 61 -28 126 -20 66 -42 139 -50 164 -19 62 -151 488 -163 525 -6 17 -17
53 -25 80 -8 28 -33 109 -55 180 -23 72 -57 184 -77 250 -20 66 -43 138 -50
160 -7 22 -30 94 -50 160 -60 195 -77 245 -85 245 -8 0 -125 -35 -185 -55 -22
-7 -101 -32 -175 -55 -74 -23 -175 -54 -225 -70 -199 -62 -321 -99 -340 -102
-33 -5 -47 58 -43 197 3 104 7 125 28 160 34 57 80 105 117 121 45 19 137 18
181 -3 63 -29 144 -120 176 -198 40 -97 40 -96 86 -78 22 9 40 19 40 23 0 26
-65 159 -103 213 -56 78 -126 132 -214 164 -76 28 -99 28 -178 2z m518 -1136
c3 -5 -15 -64 -40 -133 -24 -69 -59 -168 -78 -220 -148 -421 -137 -399 -199
-400 -26 0 -40 -46 157 510 31 85 61 171 67 190 7 19 20 41 28 48 17 13 58 16
65 5z m-354 -70 c56 -41 100 -183 81 -266 -20 -89 -79 -130 -179 -124 -58 3
-66 6 -97 39 -78 86 -86 268 -14 333 51 46 158 55 209 18z m547 -233 c50 -32
77 -98 82 -200 2 -68 -1 -92 -15 -120 -26 -50 -73 -73 -149 -74 -76 -1 -105
17 -142 87 -21 40 -25 63 -26 137 -1 98 10 124 74 168 44 30 129 31 176 2z"/>
<path d="M3054 4756 c-34 -26 -23 -192 17 -234 23 -26 65 -28 97 -6 19 13 22
24 22 83 0 72 -13 125 -38 154 -18 21 -71 22 -98 3z"/>
<path d="M3601 4514 c-26 -33 -28 -104 -5 -175 26 -77 74 -97 127 -51 27 24
24 144 -5 202 -20 39 -27 45 -59 48 -30 3 -41 -2 -58 -24z"/>
<path d="M1570 4746 c0 -25 3 -46 6 -46 3 0 49 -9 102 -19 54 -11 149 -29 212
-41 63 -12 144 -28 180 -35 36 -8 98 -20 138 -26 40 -7 74 -15 76 -18 2 -3 -3
-274 -11 -601 -22 -882 -24 -1028 -16 -1033 5 -2 67 15 138 39 72 23 211 68
310 99 99 31 191 60 205 65 14 5 106 34 205 65 99 31 198 62 220 70 22 7 101
32 175 55 74 22 153 47 175 55 22 7 101 32 175 55 74 24 173 55 220 70 47 15
119 38 160 50 41 12 100 30 130 40 30 10 129 42 220 70 245 76 236 72 232 101
-6 45 -24 53 -74 36 -23 -9 -97 -32 -163 -53 -66 -20 -158 -49 -205 -64 -113
-36 -188 -60 -350 -110 -74 -23 -144 -45 -155 -50 -11 -5 -31 -12 -45 -15 -42
-11 -284 -86 -305 -95 -11 -5 -60 -20 -110 -35 -49 -15 -99 -30 -110 -35 -11
-5 -42 -15 -70 -23 -27 -8 -129 -40 -225 -70 -96 -31 -256 -81 -355 -112 -99
-31 -208 -66 -243 -77 -34 -12 -65 -18 -69 -14 -5 5 0 315 22 1221 2 77 6 190
9 251 l6 111 -43 11 c-23 6 -130 27 -237 47 -389 73 -498 95 -517 102 -9 4
-13 -8 -13 -41z"/>
<path d="M3480 3204 c-137 -49 -183 -216 -88 -323 94 -104 248 -90 324 31 36
56 36 142 0 203 -48 82 -149 120 -236 89z"/>
<path d="M2370 2840 c-51 -27 -86 -69 -105 -124 -22 -65 -7 -133 43 -188 43
-47 89 -68 151 -68 123 1 210 99 199 222 -13 134 -171 221 -288 158z"/>
<path d="M2258 2077 c-49 -12 -88 -57 -88 -103 0 -28 -5 -36 -25 -44 -14 -5
-25 -16 -25 -25 0 -9 11 -20 25 -25 l25 -10 0 -160 0 -160 25 0 c14 0 25 6 25
13 1 6 2 80 3 162 l2 150 50 5 c42 4 50 8 50 25 0 17 -8 21 -45 23 -54 4 -65
12 -56 46 10 40 33 56 82 56 41 0 45 2 42 22 -4 27 -40 37 -90 25z"/>
<path d="M4567 2053 c-4 -3 -7 -17 -7 -30 0 -19 5 -23 30 -23 27 0 30 3 30 30
0 25 -4 30 -23 30 -13 0 -27 -3 -30 -7z"/>
<path d="M4300 1985 c0 -34 -4 -47 -17 -52 -38 -14 -42 -40 -9 -53 24 -9 25
-11 28 -148 3 -135 4 -141 28 -161 49 -40 142 -36 148 7 3 20 -1 22 -47 22
-68 0 -72 11 -69 157 l3 118 58 3 c53 3 57 5 57 27 0 24 -3 25 -60 25 l-60 0
0 50 c0 49 -1 50 -30 50 -29 0 -30 -2 -30 -45z"/>
<path d="M2387 1923 c-4 -3 -7 -17 -7 -31 0 -20 4 -23 23 -18 91 26 161 14
177 -30 15 -39 -3 -54 -62 -54 -55 0 -111 -20 -145 -52 -18 -17 -23 -32 -23
-75 0 -43 5 -58 28 -83 37 -43 96 -51 152 -21 48 25 60 26 60 6 0 -9 9 -15 24
-15 30 0 33 24 26 203 -5 126 -6 129 -33 153 -25 22 -37 24 -121 24 -51 0 -96
-3 -99 -7z m201 -212 c5 -51 -4 -74 -37 -94 -37 -21 -104 -22 -125 -1 -22 22
-20 77 4 99 23 21 72 34 120 32 32 -2 35 -5 38 -36z"/>
<path d="M2700 1915 c0 -8 6 -29 14 -47 8 -18 31 -78 51 -133 69 -187 68 -185
91 -185 28 0 36 11 67 95 14 39 42 112 61 164 44 114 44 123 9 119 -22 -3 -29
-12 -45 -58 -10 -30 -22 -64 -27 -75 -5 -11 -17 -45 -27 -75 -28 -94 -37 -90
-79 40 -48 145 -61 170 -90 170 -15 0 -25 -6 -25 -15z"/>
<path d="M3080 1739 l0 -190 28 3 27 3 3 131 c3 152 9 164 90 174 42 4 47 8
50 33 5 40 -20 44 -79 13 -28 -14 -53 -26 -55 -26 -2 0 -4 11 -4 25 0 21 -5
25 -30 25 l-30 0 0 -191z"/>
<path d="M3343 1923 c-7 -2 -13 -16 -13 -30 0 -21 3 -24 23 -19 104 28 168 14
181 -40 9 -33 -5 -44 -59 -44 -61 0 -115 -19 -147 -50 -51 -52 -34 -151 33
-186 39 -20 75 -18 125 8 42 21 45 21 57 4 7 -10 22 -17 33 -14 18 3 19 14 22
143 3 151 -4 182 -46 215 -20 17 -40 20 -111 19 -47 0 -92 -3 -98 -6z m195
-230 c3 -50 1 -54 -30 -73 -40 -24 -105 -26 -130 -3 -22 20 -24 76 -3 93 25
21 88 40 125 37 35 -2 35 -2 38 -54z"/>
<path d="M3694 1917 c-2 -7 -3 -91 -2 -187 l3 -175 28 -3 27 -3 0 145 0 144
33 20 c38 24 63 29 99 19 35 -9 40 -27 44 -181 1 -72 3 -135 3 -139 1 -5 13
-7 29 -5 l27 3 3 115 c4 152 -2 192 -38 230 -24 26 -35 30 -80 30 -36 0 -63
-7 -86 -21 l-34 -21 0 21 c0 16 -6 21 -25 21 -14 0 -28 -6 -31 -13z"/>
<path d="M4497 1917 c-8 -21 5 -35 38 -39 29 -3 30 -5 33 -63 5 -79 -8 -319
-17 -334 -4 -6 -27 -15 -52 -19 -35 -6 -44 -12 -44 -27 0 -15 8 -21 34 -23 49
-5 77 5 106 36 l25 27 0 227 0 228 -59 0 c-40 0 -61 -4 -64 -13z"/>
<path d="M4100 1595 c0 -45 0 -45 35 -45 35 0 35 0 35 45 0 45 0 45 -35 45
-35 0 -35 0 -35 -45z"/>
</g>
</svg>
