<?xml version="1.0" encoding="utf-8"?>
<!-- Generator: Adobe Illustrator 24.3.0, SVG Export Plug-In . SVG Version: 6.00 Build 0)  -->
<svg version="1.1" xmlns="http://www.w3.org/2000/svg" xmlns:xlink="http://www.w3.org/1999/xlink" x="0px" y="0px"
	 viewBox="0 0 2000 2000" style="enable-background:new 0 0 2000 2000;" xml:space="preserve">
<style type="text/css">
	.st0{fill:#FF0000;}
	.st1{fill:#FFFEFE;}
</style>
<g id="Фигура_4__x2B__Фигура_1__x2B___x25___x2B__Фигура_2__x2B__Фигура_3__x2B__Фигура_3_копия__x2B__Фигура_2_копия__x2B__Фигура_2_копия_2_xA0_Image_1_">
	<g>
		<path class="st0" d="M688.72,1009.68c-0.19-9.83-0.37-19.65,1.19-29.39c2.41,4.06,0.49,8.59,1.37,13.19
			c-0.99-25.24,0.64-50.08,0.7-74.97c1.66-11.8,0.46-23.67,0.9-35.49c2.04-14.85,1.2-29.87,1.41-44.74
			c0.64-45.48,2-90.94,2.29-136.43c0.15-23.85,0.35-47.71,0.62-71.57c1.86-62.64,0.42-125.3,0.87-187.94
			c0.03-3.46-0.53-7.11,2.54-9.6c30.66-10.68,61.3-21.38,91.97-32.03c7.74-2.69,15.54-5.21,23.31-7.81c0.39-0.15,0.78-0.3,1.16-0.46
			c15.81-10.28,33.38-14.07,51.26-16.76c37.93-13.1,75.83-26.34,113.81-39.27c116.52-39.67,233.09-79.14,349.56-118.98
			c7.8-2.67,11.01-1.6,13.58,7.5c95.95,340.1,192.08,680.14,288.54,1020.07c3.11,10.97-2.37,11.41-8.55,13.53
			c-205.8,70.26-411.62,140.47-617.37,210.9c-108.42,37.12-216.73,74.64-325.09,111.98c-2.49,0.86-4.98,1.77-7.49,2.54
			c-5.06,1.54-8.09-0.16-7.74-6.38c0.32-5.71,0.89-11.4,1.36-17.1c0.25,0.14,0.54,0.24,0.75,0.44c0.19,0.18,0.29,0.46,0.44,0.7
			c-1.21-22.52,3.35-44.92,1.14-67.46c-0.25-6.67-0.39-13.33,1.15-19.87c0.88,0.43,1.17,1.22,1.18,2.21
			c0.08-0.74,0.01-1.49,0.03-2.24c0.29-8.41-0.6-16.85,0.49-25.27c0.22-14.32,2.47-28.58,0.64-42.92
			c-0.19-7.21-0.44-14.43,1.28-21.51c2.15-7.45,1.1-14.98,0.5-22.49c-0.32-7.26-0.52-14.52,1.19-21.65
			c2.73-8.04,0.01-16.49,1.53-24.64c0.71-14.53,1.51-29.04,1.5-43.59c1.51-18.64,1.14-37.37,2.48-56.02
			c0.12-19.58,1.51-39.11,1.75-58.68c0.66-12.23,1.69-24.46,0.29-36.72c-0.34-8.59-0.41-17.17,1.11-25.67
			c2.42,2.11,0.62,5.04,1.34,7.69c-0.66-12.65,0.73-25.14-0.74-37.58c-0.24-8.57-0.39-17.14,1.17-25.62
			c2.55,2.89,0.47,6.47,1.31,9.63C688.8,1036.06,690.19,1022.84,688.72,1009.68z"/>
		<path class="st0" d="M572.69,1681.38c31.75-11.26,63.45-22.72,95.27-33.74c375.41-130,750.84-259.91,1126.2-390.09
			c7.85-2.72,11.56-2.13,13.41,7.34c1.7,8.67,4.5,17.15,7.4,25.46c2.51,7.18,1.35,10.5-5.94,12.9
			c-28.94,9.52-57.65,19.87-86.47,29.85C1341.61,1465,960.65,1596.9,579.69,1728.77c-2.76,0.95-5.58,1.69-8.36,2.53
			c-3.35-1.06-4.12-3.86-4.24-7.26c-0.41-12.26,2.32-24.32,1.94-36.58C568.94,1684.6,571.26,1683.27,572.69,1681.38z"/>
		<path class="st0" d="M815.89,392.9c-3.83-16.96-7.68-33.92-11.47-50.9c-0.33-1.5-0.31-3.09-0.45-4.64
			c2.48-5.41-0.6-10.5-1.38-15.45c-1.59-10.1,0.12-20.7-3.85-30.39c0.01-0.7,0.03-1.39,0.04-2.09c1.39-9.93,0.19-19.94,0.7-29.9
			c1.08-16.83,3.54-33.51,4.46-50.36c11.29-60.52,34.61-113.07,82.63-149.05c9.25-6.93,19.98-10.69,30.16-15.64
			c12.84-6.24,26.25-5.7,39.13-9.36c14.14,1.22,28.4,1.35,42.2,5.63c58.4,13.6,96.96,55.87,128.85,107.54
			c18.69,30.27,30.7,63.91,40.53,98.65c2.37,8.37,0.1,12.36-7.15,14.63c-10.34,3.24-20.52,7.11-30.01,12.71
			c-3.92,2.31-5.25,0.61-7.09-3c-7.34-14.44-12.01-30.08-17.62-45.31c-15.81-42.9-41.02-77.84-75.71-104.06
			c-7.88-5.96-17.39-9.91-26.92-12.76c-8.45-7.34-18.94-6.38-28.68-7.95c-5.79-0.94-11.97-1.07-17.85,0.87
			c-7.16,1.56-14.75,1.28-21.2,5.93c-17.25,8.58-33.08,19.24-45.52,35.38c-20.65,26.78-32.07,58.08-36.58,92.27
			c-6.3,47.79-1.08,94.51,13.85,139.92c-16.24,7.66-33.29,12.55-50.25,17.72C816.45,393.16,816.17,393.03,815.89,392.9z"/>
		<path class="st0" d="M733.64,1903.82c-5.95,52.51-47.16,94.06-96.04,96.08c-42.21,1.74-74.79-17.59-95.15-57.98
			c-20.2-40.08-17.67-80.4,5.62-118.42c16.03-26.17,39-41.83,67.33-46.55c29.16-4.86,56.4,1.55,79.89,21.99
			c21.35,18.58,34.57,42.63,38.32,72.53C733.2,1882.25,733.12,1893.03,733.64,1903.82z"/>
		<path class="st0" d="M1275.23,1710.4c-5.95,52.51-47.16,94.06-96.04,96.08c-42.21,1.74-74.79-17.59-95.15-57.98
			c-20.2-40.08-17.67-80.4,5.62-118.42c16.03-26.17,39-41.83,67.33-46.55c29.16-4.86,56.4,1.54,79.89,21.99
			c21.35,18.58,34.57,42.63,38.32,72.53C1274.79,1688.84,1274.72,1699.62,1275.23,1710.4z"/>
		<path class="st0" d="M526.3,1724.01c-0.32-11.69-0.57-23.39,1.21-35c0.24,0.17,0.62,0.28,0.71,0.51c0.35,0.96,0.38,1.13,0.39,0.46
			c0.21-12.93-0.4-25.87,0.32-38.82c0.84-17.08,0.95-34.16,1.32-51.23c0.22-10.44,0.53-20.86,0.99-31.29
			c-0.52-22.28,2.29-44.54,0.27-66.83c-0.23-11.09-0.45-22.18,1.17-33.2c2.68,6.04,0.34,12.45,1.27,18.4
			c-0.59-19.16,0.71-38.57-0.69-57.95c-0.26-11.71-0.45-23.41,1.22-35.04c2.61,7.63,0.14,15.52,1.17,21.66
			c-0.54-18.74,0.78-39.08-0.64-59.39c-0.29-11.75-0.44-23.49,1.16-35.17c2.63,5.33,0.24,11.09,1.14,15.1
			c0.36-16.86-0.5-35.21,0.44-53.55c1.02-27.84,1.02-55.69,2.22-83.51c-0.42-21.68,2.25-43.34,0.29-65.02
			c-0.29-11.11-0.42-22.22,1.13-33.26c2.7,4.5,0.39,9.51,1.31,14.2c-0.65-17.9,0.71-35.82-0.71-53.71c0.01-0.68,0.01-1.35,0.02-2.03
			c3.23-12.08,1.32-24.56,2.03-36.83c0.91-15.8,0.6-31.74,1.18-47.61c-0.16-20.34,2.17-40.66,0.28-61
			c-0.24-11.67-0.45-23.35,1.26-34.93c1.66,1.46,0.87,3.51,1.09,5.33c0-10.38,0.14-20.76-0.06-31.13c-0.11-5.45,2.12-7.65,6.82-7.25
			c9.23,0.79,18.37,2.45,27.46,4.15c6.43,1.2,7.99,7.43,8.27,13.85c0.35,11.75,0.41,23.49-1.15,35.17
			c-2.68-6.36-0.26-13.08-1.16-18.53c-0.12,22.73,0.48,46.5-0.87,70.26c-0.16,19.39-1.33,38.74-0.95,58.12
			c-1.87,14.54-0.61,29.2-1.43,43.81c-0.8,14.25-0.54,28.61-1.11,42.91c0.38,20.44-2.25,40.86-0.26,61.3
			c0.2,11.68,0.56,23.36-1.26,34.95c-1.81-1.36-0.82-3.43-1.23-5.81c0.59,15.59-0.62,30.56,0.68,45.5
			c0.31,11.68,0.52,23.37-1.22,34.96c-0.55-0.34-0.91-0.82-0.97-1.44c-0.1-1.11-0.11-1.26-0.11-0.44c0,6.01,0.07,12.01-0.02,18.02
			c-0.1,6.63,0.41,13.27-0.32,19.91c-1.26,14.49-0.69,29.03-1.14,43.52c-0.52,16.7-1.21,33.43-1.14,50.17
			c-0.29,18.52-1.93,37.03-0.29,55.56c0.26,11.7,0.49,23.41-1.22,35.03c-2.42-4.41-0.38-9.24-1.22-13.62
			c0.64,16.99-0.74,34.2,0.7,51.36c0.24,11.69,0.55,23.38-1.24,34.98c-0.57-0.31-0.93-0.77-0.98-1.4c-0.1-1.19-0.12-1.24-0.12-0.14
			c0,9.07,0.04,18.14-0.02,27.21c-0.03,4.06,0.33,8.13-0.31,12.19c-0.72,31.14-2.02,62.24-2.29,93.37
			c0.62,12.04-1.35,24.02-0.78,36.04c0.26,5.49-2.51,7.21-6.52,8.14c-9.45,4.61-19.68,6.52-29.44,10.1l0.45,0.24
			c-4.19,1.32-6.67,0.48-6.59-5.19C526.86,1734.8,527.49,1729.36,526.3,1724.01z"/>
		<path class="st0" d="M424.51,772.63c10.02,2.56,20.42,3.12,30.22,6.84c13.06,3.8,26.25,6.91,39.74,8.22
			c8.36,1.32,16.79,2.24,24.83,5.32c12.95,4.56,26.41,6.08,39.79,8.16c7.84,1.47,15.82,2.13,23.4,5.06
			c0.43,1.66,1.72,1.14,2.75,1.38c11.51,2.67,11.51,2.68,12.16,14.27c-2.19,10.89-0.85,22.66-6.8,32.61
			c-14.57-0.96-28.59-5.53-42.93-7.97c-1.42-0.24-2.76-0.81-4.13,0.03c-4.89-0.61-9.84-0.86-14.36-3.35
			c-10.06-3.82-20.52-5.2-31.04-6.28c-7.79-1.54-15.77-2.04-23.29-5.1c-12.96-4.23-26.18-6.95-39.65-8.21
			c-11.26-2.05-22.65-3.4-33.6-7.2c-10.1-3.51-20.45-5.51-31-6.31c-10.69-2.14-21.57-3.19-31.97-6.95
			c-13.03-3.92-26.28-6.55-39.7-8.25c-8.37-1.21-16.76-2.27-24.81-5.3c-13-4.34-26.38-6.38-39.81-8.18
			c-14.93-2.95-29.85-5.99-44.81-8.77c-2.8-0.52-5.04-1.06-5.55-4.56c0.73-13.94,0.96-27.88-0.1-41.82
			c0.95-6.01,4.11-3.76,7.07-2.27c13.02,4.06,26.33,6.44,39.75,8.17c11.24,2.07,22.63,3.28,33.54,7.22
			c10.07,3.8,20.55,5.16,31.07,6.27c7.73,1.57,15.66,2.07,23.12,5.13c13.09,3.77,26.34,6.59,39.8,8.19
			c11.24,2.1,22.63,3.37,33.57,7.19C402.43,769.82,413.3,772.29,424.51,772.63z"/>
		<path class="st0" d="M698.88,630.32c0.69,54.17-1.82,108.29-2.22,162.45c-0.19,25.74-0.58,51.56-1.18,77.34
			c-0.1,4.47-0.03,8.94-1.78,13.13c-0.47,1.36-0.96,1.37-1.46,0.02c0.02-2.59,0.04-5.18,0.06-7.77c1.67-11.11-0.71-22.4,1.28-33.49
			c0.16-16.28,0.31-32.57,0.47-48.85c1.67-13.05-0.73-26.26,1.3-39.29c0.15-22.65,0.29-45.29,0.44-67.94
			c1.31-18.11,0.04-36.26,0.67-54.39C696.87,630.18,697.68,629.78,698.88,630.32z"/>
		<path class="st0" d="M698.88,630.32c-0.38-0.09-0.75-0.19-1.13-0.29c-2.68-4.95-1.46-10.12-0.73-15.26c0-58.61,0-117.23,0-175.84
			c0-2.9-0.21-5.95,3.6-6.19c-1.96,5.16-1.67,10.61-1.67,16.02C698.92,509.28,698.9,569.8,698.88,630.32z"/>
		<path class="st0" d="M543.54,846.55c6.08-2.7,11.84,0.42,17.62,1.45c9.88,1.75,19.64,4.29,29.45,6.5c-0.1,3.15-0.2,6.31-0.29,9.46
			c-1.65-6.27-5.36-9.04-11.38-9.7c-6.9-0.76-13.77-2.45-20.51-4.34c-6.88-1.92-9.85,0.39-9.72,8.27c0.2,12.6,0.05,25.21-1.11,37.81
			c-0.28-5.67-0.57-11.33-0.85-17c0.05-8.4,0.12-16.8,0.13-25.21C546.88,850.8,547.65,847.31,543.54,846.55z"/>
		<path class="st0" d="M567.95,1691.38c1.74-28.83,1.83-57.7,1.83-86.58c0-3.09,1.08-6.18,1.66-9.27c0.48-1.31,0.96-1.3,1.42,0.01
			c-0.01,2.59-0.02,5.18-0.03,7.78c-1.67,10.48,0.72,21.16-1.31,31.62c0.29,15.39,0.92,30.8-1.67,46.07
			C570.25,1684.69,572.75,1688.84,567.95,1691.38z"/>
		<path class="st0" d="M574.94,1396.48c2.28-28.81,1.44-57.69,1.82-86.54c0.04-3.1,1.07-6.18,1.65-9.27
			c0.47-1.36,0.96-1.37,1.46-0.02c-0.02,2.59-0.03,5.17-0.05,7.76c-1.66,10.47,0.66,21.13-1.29,31.58
			c-0.16,14.37-0.32,28.74-0.48,43.11c-1.26,4.28,0.05,8.75-0.82,13.05C576.56,1397.03,575.8,1397.14,574.94,1396.48z"/>
		<path class="st0" d="M671.25,1494.17c3.13,9.61,1.72,19.6,1.3,29.31c-0.72,16.77-1.99,33.51-2.78,50.4
			c-0.28-4.46-0.57-8.93-0.85-13.39C669.7,1538.38,670.48,1516.27,671.25,1494.17z"/>
		<path class="st0" d="M581.91,1095.8c2.44-25.94,1.53-51.97,1.74-77.96c0.02-2.89,0.34-5.7,1.7-8.26c0.78,0.36,1.28,0.97,1.47,1.89
			c-0.01,1.32-0.02,2.63-0.02,3.95c-1.66,10.48,0.71,21.15-1.3,31.61c-0.15,13.72-0.3,27.44-0.44,41.16
			c-1.19,2.46,0.05,5.31-1.02,7.78C583.29,1096.51,582.58,1096.45,581.91,1095.8z"/>
		<path class="st0" d="M532.96,1568.77c-2.88,23.37-1.31,46.86-1.71,70.3c-0.08,4.76,0.1,9.54-1.79,14.02
			c-0.48,1.32-0.96,1.32-1.43,0c0.01-2.59,0.03-5.18,0.04-7.78c1.67-10.48-0.72-21.16,1.31-31.61c0.14-13.71,0.28-27.43,0.42-41.14
			c0.83-1.31,0.25-3.13,1.32-4.35C531.85,1567.91,532.46,1568.13,532.96,1568.77z"/>
		<path class="st0" d="M541.69,1199.18c-2.69,24.97-1.42,50.05-1.73,75.09c-0.04,3.2-0.17,6.35-1.71,9.21
			c-0.8-0.34-1.28-0.99-1.48-1.89c0.01-1.32,0.02-2.63,0.04-3.95c1.66-10.47-0.71-21.15,1.3-31.61c0.14-13.72,0.29-27.44,0.43-41.16
			c1.1-1.87,0.01-4.23,1.15-6.08C540.43,1198.4,541.11,1198.5,541.69,1199.18z"/>
		<path class="st0" d="M686.66,1157c-1.45,19.78-2,39.58-1.7,59.42c-1.07,1.13-2.13,1.15-3.2,0c0.59-19.79,1.17-39.59,1.76-59.38
			C684.55,1155.91,685.6,1155.94,686.66,1157z"/>
		<path class="st0" d="M693.64,919.52c-0.49,27.87-2.76,55.68-1.47,83.6c-0.75,0.01-1.5,0.02-2.25,0.03c0-7.62,0-15.24,0-22.87
			c0.2-12.59,0.4-25.17,0.61-37.76c1.29-7.38,0.05-14.85,0.73-22.26C691.83,919.18,692.63,918.93,693.64,919.52z"/>
		<path class="st0" d="M546.92,975.13c-2.37,24.94-1.56,49.97-1.74,74.98c-0.03,3.5,0.1,7.09-3.18,9.26
			c0.02-0.65,0.03-1.3,0.05-1.95c1.6-10.44-0.62-21.06,1.23-31.5c0.16-13.76,0.33-27.51,0.49-41.27c1.29-3.05-0.07-6.42,0.98-9.49
			C545.46,974.53,546.19,974.49,546.92,975.13z"/>
		<path class="st0" d="M567.95,1691.38c1.79-3.2,1.68-6.82,1.91-10.37c0.95,0.12,1.89,0.25,2.84,0.37
			c-0.65,16.64-4.4,33.17-1.36,49.92c-2.45,2.01-4.4,5.16-8.12,4.28c-0.89,0.78-1.7,0.68-2.41-0.3c5.62-2.48,7.35-7.15,7.16-13.57
			C567.66,1711.62,567.92,1701.49,567.95,1691.38z"/>
		<path class="st0" d="M681.76,1216.42c1.07,0,2.13,0,3.2,0c-2.32,14.43-1.62,29.01-1.73,43.55c-0.03,4.1,0.31,8.27-1.69,12.04
			c-0.81-0.36-1.32-1-1.54-1.93C678.66,1252.12,682.04,1234.34,681.76,1216.42z"/>
		<path class="st0" d="M585.41,950.25c2.78-25.85,1.21-51.87,3.75-77.82c0,8.9,0,17.8,0,26.7c-0.2,13.87-0.4,27.73-0.59,41.6
			c-1.28,3.05,0.07,6.42-0.98,9.49C586.87,950.86,586.15,950.87,585.41,950.25z"/>
		<path class="st0" d="M816.72,393.29c16.37-7.22,33.41-12.14,50.25-17.72c0.45-0.03,0.9,0.01,1.34,0.12
			c-3.31,4.74-8.61,5.02-13.15,6.3C842.32,385.62,830.35,392.88,816.72,393.29z"/>
		<path class="st0" d="M803.94,209.18c2.99,5.31,0.59,10.73-0.24,15.84c-1.84,11.26-0.11,22.94-3.54,33.96
			c-0.42,1.17-0.87,1.12-1.33,0.03C798.52,242.15,800.62,225.59,803.94,209.18z"/>
		<path class="st0" d="M536.76,1281.58c0.49,0.63,0.99,1.26,1.48,1.89c0,21.47,0,42.94,0,64.41c-0.69,0.01-1.39,0.02-2.08,0.03
			c0-8.92,0-17.85,0-26.77C536.36,1307.95,536.56,1294.77,536.76,1281.58z"/>
		<path class="st0" d="M697.02,614.77c0.24,5.09,0.48,10.18,0.73,15.27c-0.17,14.58-0.33,29.16-0.52,43.73
			c-0.05,4.1,0.33,8.28-1.44,12.14C695.59,662.18,695.31,638.45,697.02,614.77z"/>
		<path class="st0" d="M955.53,101.75c15.5-4.27,30.49-1.12,45.37,3.7c1.61,0.52,2.23,1.89,2.04,3.7
			c-13.27-4.8-26.68-8.28-40.83-5.88c-1.27,0.21-2.69-0.73-4.05-1.14C957.11,102.93,956.26,102.8,955.53,101.75z"/>
		<path class="st0" d="M435.2,823.62c6.11-3.39,11.85,0.32,17.65,1.36c7.62,1.36,15.12,3.51,22.66,5.36
			c0.03,0.01,0.02,0.56-0.09,0.79c-0.12,0.27-0.38,0.46-0.57,0.69C461.51,829.81,448.13,828.03,435.2,823.62z"/>
		<path class="st0" d="M680,1270.08c0.51,0.64,1.02,1.29,1.54,1.93c-0.88,15.3,1.87,30.77-1.83,45.94
			c-0.48,1.35-0.96,1.35-1.45,0.01C676.84,1301.91,679.93,1286.06,680,1270.08z"/>
		<path class="st0" d="M541.98,1061.39c3.18,11.51,1.02,23.3,1.44,34.96c0.35,9.77,0.07,19.56,0.07,29.34
			c-0.7,0.01-1.4,0.02-2.1,0.03c0-8.27,0-16.54,0-24.81C541.58,1087.73,541.78,1074.56,541.98,1061.39z"/>
		<path class="st0" d="M532.96,1568.77c-0.55-0.01-1.11-0.01-1.66-0.02c-1.73-9.23-1.22-18.49-0.24-27.74
			c0.15-13.06,0.29-26.12,0.44-39.18c3.11,10.49,1.13,21.28,1.44,31.93C533.27,1545.42,532.98,1557.1,532.96,1568.77z"/>
		<path class="st0" d="M541.69,1199.18c-0.54-0.01-1.07-0.02-1.61-0.04c-1.8-8.57-1.21-17.17-0.31-25.77
			c0.16-13.07,0.32-26.14,0.48-39.21c3.16,11.77,1.01,23.8,1.42,35.7C542.01,1179.62,541.71,1189.41,541.69,1199.18z"/>
		<path class="st0" d="M535,1356.31c3.63,20.05,0.16,40.24,1.76,60.33c-0.76,0.02-1.52,0.04-2.28,0.06c0-7.55,0-15.11,0-22.66
			C534.65,1381.46,534.82,1368.88,535,1356.31z"/>
		<path class="st0" d="M533.25,1429.08c3.42,20.08,0.47,40.26,0.26,60.44c-0.28-6.96-0.56-13.93-0.85-20.89
			C532.86,1455.45,533.06,1442.26,533.25,1429.08z"/>
		<path class="st0" d="M674.74,1406.08c2.41,14.68,2.65,29.34-0.3,43.97c-0.45,1.39-0.91,1.4-1.39,0.01
			C671.68,1435.31,674.92,1420.77,674.74,1406.08z"/>
		<path class="st0" d="M234.3,781.46c13.82-0.47,27.13,1.99,39.81,8.18C260.73,787.6,247.29,785.83,234.3,781.46z"/>
		<path class="st0" d="M559.09,801.17c-13.92,1.47-26.88-4.03-40.25-6.63c-0.06-0.01-0.12-0.54-0.04-0.78
			c0.09-0.28,0.33-0.5,0.5-0.75C532.69,795.02,546.11,796.77,559.09,801.17z"/>
		<path class="st0" d="M574.62,1524.65c-3.51-19.41-0.39-38.94-1.58-58.39c0.7-0.02,1.4-0.05,2.1-0.07c0,6.91,0,13.81,0,20.72
			C574.97,1499.48,574.8,1512.06,574.62,1524.65z"/>
		<path class="st0" d="M230.65,732.2c-13.94,1.64-26.82-4.5-40.25-6.65c-0.04-0.01-0.09-0.55-0.01-0.78c0.1-0.28,0.34-0.5,0.51-0.74
			C204.27,726.06,217.68,727.84,230.65,732.2z"/>
		<path class="st0" d="M581.91,1095.8c0.51,0.02,1.03,0.05,1.54,0.07c2.01,7.85,1.19,15.76,0.4,23.67
			c-0.16,12.48-0.32,24.95-0.48,37.43c-3.25-11.75-0.99-23.78-1.45-35.66C581.59,1112.83,581.89,1104.31,581.91,1095.8z"/>
		<path class="st0" d="M585.41,950.25c0.5,0,0.99,0.01,1.49,0.01c1.99,7.3,1.3,14.65,0.41,22.01c-0.16,13.07-0.32,26.13-0.48,39.2
			c-0.49-0.63-0.98-1.26-1.47-1.89C585.38,989.81,585.39,970.03,585.41,950.25z"/>
		<path class="st0" d="M546.92,975.13c-0.5-0.01-1-0.01-1.5-0.02c-1.98-7.29-1.29-14.65-0.4-22c0.15-13.06,0.3-26.11,0.46-39.17
			c3.16,12.39,0.96,25.04,1.44,37.57C547.22,959.37,546.94,967.26,546.92,975.13z"/>
		<path class="st0" d="M798.74,291.53c5.88,5.12,2.76,12.47,3.58,18.74c1.18,8.93,4.28,17.85,1.64,27.1
			C800.89,322.27,800.09,306.86,798.74,291.53z"/>
		<path class="st0" d="M298.92,794.93c13.85-0.83,26.98,2.53,39.7,8.25C325.23,801.33,311.86,799.41,298.92,794.93z"/>
		<path class="st0" d="M358.18,759.02c-13.86,0.75-27-2.76-39.8-8.19C331.77,752.81,345.2,754.61,358.18,759.02z"/>
		<path class="st0" d="M581.57,1231.63c-3.27-17.57-0.51-35.22-0.38-52.85c0.31,4.39,0.62,8.78,0.93,13.17
			C581.94,1205.17,581.75,1218.4,581.57,1231.63z"/>
		<path class="st0" d="M494.47,787.69c-13.86,0.82-26.99-2.61-39.74-8.22C468.12,781.4,481.45,783.63,494.47,787.69z"/>
		<path class="st0" d="M574.94,1396.48c0.44,0.05,0.89,0.1,1.33,0.15c2.46,5.19,1.15,10.56,0.63,15.89
			c-0.18,13.12-0.36,26.24-0.54,39.35c-3.31-14.58-0.71-29.4-1.43-44.08C574.75,1404.03,574.93,1400.25,574.94,1396.48z"/>
		<path class="st0" d="M998.06,40.76c-14.07-1.88-28.14-3.76-42.2-5.63C970.19,34.65,984.57,33.7,998.06,40.76z"/>
		<path class="st0" d="M572.86,1595.55c-0.47,0-0.95-0.01-1.42-0.01c0-16.35,0-32.7,0-49.05c0.34,0,0.69,0,1.03-0.01
			c0.31,4.38,0.61,8.76,0.92,13.15C573.21,1571.6,573.04,1583.57,572.86,1595.55z"/>
		<path class="st0" d="M688.72,1009.68c3.5,16.27,0.35,32.69,0.19,49.09c-0.26-6.39-0.51-12.78-0.77-19.17
			C688.34,1029.63,688.53,1019.65,688.72,1009.68z"/>
		<path class="st0" d="M528.02,1653.08c0.48,0,0.96,0,1.43,0c0,16.35,0,32.71,0,49.06c-0.34,0-0.68,0-1.02,0.01
			c-0.31-4.38-0.62-8.76-0.93-13.14C527.67,1677.04,527.85,1665.06,528.02,1653.08z"/>
		<path class="st0" d="M579.87,1300.65c-0.49,0.01-0.97,0.02-1.46,0.02c0-16.37,0-32.75,0-49.12c0.36,0,0.72,0,1.08-0.01
			c0.29,5.02,0.57,10.03,0.86,15.05C580.19,1277.94,580.03,1289.3,579.87,1300.65z"/>
		<path class="st0" d="M686.98,1065.22c3.59,15.63,0.27,31.41,0.24,47.18c-0.28-5.76-0.57-11.53-0.85-17.29
			C686.57,1085.14,686.78,1075.18,686.98,1065.22z"/>
		<path class="st0" d="M424.51,772.63c-11.62,2.98-22.14-3.11-33.18-4.87c-0.07-0.01-0.15-0.55-0.08-0.78
			c0.08-0.29,0.32-0.51,0.5-0.77C402.82,767.42,413.72,769.66,424.51,772.63z"/>
		<path class="st0" d="M370.59,810.12c10.94-1.88,21.1,2.52,31.52,4.8c0.05,0.01,0.08,0.54,0,0.78c-0.1,0.27-0.34,0.49-0.51,0.73
			C391.12,815.16,380.72,813.46,370.59,810.12z"/>
		<path class="st0" d="M498.13,836.93c10.95-2.14,21.04,2.72,31.48,4.72c0.07,0.01,0.14,0.55,0.07,0.79
			c-0.09,0.28-0.33,0.51-0.5,0.77C518.68,841.97,508.28,840.2,498.13,836.93z"/>
		<path class="st0" d="M295.26,745.7c-10.95,2.13-21.03-2.78-31.47-4.72c-0.08-0.01-0.16-0.54-0.09-0.78
			c0.08-0.29,0.32-0.52,0.49-0.77C274.69,740.67,285.11,742.38,295.26,745.7z"/>
		<path class="st0" d="M686.66,1157c-1.05,0.01-2.09,0.02-3.14,0.03c0.58-12.08,1.17-24.17,1.75-36.25
			C688.38,1132.73,686.01,1144.93,686.66,1157z"/>
		<path class="st0" d="M1275.23,1710.4c-2.36-10.78-2.34-21.56-0.02-32.35C1276.73,1688.84,1276.78,1699.62,1275.23,1710.4z"/>
		<path class="st0" d="M560.8,1735.29c0.8,0.1,1.61,0.2,2.41,0.3c-9.5,5.44-19.68,8.32-30.28,9.54
			C541.7,1740.12,551.31,1737.91,560.8,1735.29z"/>
		<path class="st0" d="M183.83,726.31c2.45,13.93,2.27,27.87,0.1,41.82C183.9,754.18,183.87,740.25,183.83,726.31z"/>
		<path class="st0" d="M597.4,821.88c-0.57-10.58-7.54-12.55-15.2-13.61c-0.2-0.03-0.55-0.48-0.51-0.58
			c0.21-0.51,0.52-0.97,0.8-1.45c1.71,0.1,3.44,0,5.11,0.32C599.5,808.8,599.5,808.83,597.4,821.88z"/>
		<path class="st0" d="M733.64,1903.82c-2.36-10.78-2.34-21.56-0.02-32.35C735.13,1882.25,735.18,1893.03,733.64,1903.82z"/>
		<path class="st0" d="M673.06,1450.06c0.46,0,0.92-0.01,1.39-0.01c0,11.92,0,23.84,0,35.75c-0.38,0.02-0.76,0.05-1.14,0.07
			c-0.3-3.86-0.6-7.72-0.91-11.58C672.62,1466.22,672.84,1458.14,673.06,1450.06z"/>
		<path class="st0" d="M695.34,753.85c-0.33,13.1,1.67,26.3-1.3,39.29C693.91,780.02,693.39,766.89,695.34,753.85z"/>
		<path class="st0" d="M693.64,919.52c-0.38-0.06-0.75-0.13-1.13-0.19c-2.4-1.63-1.39-3.77-0.75-5.86
			c0.15-10.07,0.31-20.14,0.46-30.21c0.49-0.01,0.98-0.02,1.46-0.02C693.67,895.33,693.66,907.43,693.64,919.52z"/>
		<path class="st0" d="M676.52,1362.07c3.04,9.75,0.71,19.73,1.49,30.2c-2.48-2.56-0.86-5.5-1.99-7.71
			C676.19,1377.07,676.36,1369.57,676.52,1362.07z"/>
		<path class="st0" d="M678.26,1317.95c0.48-0.01,0.96-0.01,1.45-0.01c0,9.32,0,18.63,0,27.95c-0.29,0.04-0.58,0.09-0.86,0.13
			c-0.38-1.87-0.75-3.73-1.13-5.6C677.89,1332.94,678.08,1325.44,678.26,1317.95z"/>
		<path class="st0" d="M693.57,841.99c-0.2,11.18,1.59,22.44-1.28,33.49C692.1,864.3,691.8,853.1,693.57,841.99z"/>
		<path class="st0" d="M578.54,1339.99c0.17-10.54-1.55-21.17,1.29-31.58C580.01,1318.96,580.35,1329.53,578.54,1339.99z"/>
		<path class="st0" d="M798.83,259.01c0.44,0,0.89-0.01,1.33-0.03c-0.47,10.16,1.71,20.46-1.38,30.47
			C798.79,279.3,798.81,269.15,798.83,259.01z"/>
		<path class="st0" d="M538.1,1246.03c-0.26,10.54,1.54,21.19-1.3,31.61C536.61,1267.07,536.29,1256.49,538.1,1246.03z"/>
		<path class="st0" d="M531.06,1541.01c0.08,9.25,0.16,18.5,0.24,27.74c-0.5,1.27-1.01,2.53-1.51,3.8
			C529.62,1562.01,529.26,1551.45,531.06,1541.01z"/>
		<path class="st0" d="M583.86,1119.55c-0.13-7.89-0.26-15.78-0.4-23.68c0.53-2.56,1.06-5.12,1.6-7.69
			C585.29,1098.67,585.51,1109.16,583.86,1119.55z"/>
		<path class="st0" d="M543.27,1025.92c-0.01,10.52,1.55,21.11-1.23,31.5C541.81,1046.89,541.58,1036.36,543.27,1025.92z"/>
		<path class="st0" d="M955.53,101.75c0.84,0.13,1.69,0.25,2.53,0.38c-7.61,1.96-15.23,3.91-22.84,5.87
			C940.82,101.34,948.47,102.71,955.53,101.75z"/>
		<path class="st0" d="M585.5,1047.03c0.26-10.54-1.54-21.19,1.3-31.61C586.99,1025.99,587.28,1036.56,585.5,1047.03z"/>
		<path class="st0" d="M571.52,1634.94c0.29-10.55-1.54-21.2,1.31-31.62C573,1613.89,573.34,1624.47,571.52,1634.94z"/>
		<path class="st0" d="M529.37,1613.69c-0.29,10.55,1.54,21.2-1.31,31.61C527.88,1634.74,527.55,1624.16,529.37,1613.69z"/>
		<path class="st0" d="M545.02,953.11c0.13,7.34,0.27,14.67,0.4,22.01c-0.24,3.25-0.1,6.57-1.66,9.54
			C543.58,974.11,543.25,963.56,545.02,953.11z"/>
		<path class="st0" d="M587.31,972.28c-0.13-7.34-0.27-14.68-0.4-22.01c0.24-3.24,0.1-6.57,1.66-9.54
			C588.75,951.27,589.09,961.82,587.31,972.28z"/>
		<path class="st0" d="M539.78,1173.37c0.1,8.59,0.2,17.18,0.31,25.77c-0.52,1.91-1.04,3.82-1.55,5.73
			C538.33,1194.34,538.04,1183.81,539.78,1173.37z"/>
		<path class="st0" d="M576.9,1412.52c-0.21-5.3-0.41-10.6-0.62-15.9c0.62-4.5-0.26-9.25,1.78-13.53
			C578.29,1392.93,578.54,1402.77,576.9,1412.52z"/>
		<path class="st0" d="M691.77,913.47c0.25,1.96,0.5,3.91,0.75,5.87c-1.29,7.67,0.88,15.69-1.99,23.19
			C690.3,932.81,690.07,923.09,691.77,913.47z"/>
		<path class="st0" d="M526.3,1724.01c1.87,4.18,1.48,8.7,1.47,13.11c-0.01,4.42,1.49,7.32,5.6,8.24c-5.58,3.71-7.86,1.76-7.52-5.13
			C526.12,1734.84,526.16,1729.42,526.3,1724.01z"/>
		<path class="st1" d="M874.52,788.54c0.36-29.29,5.2-56.78,27.69-76.24c46.1-39.88,108.46-21.31,128.87,38.64
			c10.09,29.65,14.23,60.6,10.71,92.15c-5.31,47.58-33.61,75.07-77.55,76.51c-38.63,1.26-62.59-15.86-76.98-55.26
			C878.38,840.02,875.34,814.49,874.52,788.54z"/>
		<path class="st1" d="M1149.35,920.95c-0.13-30.73,4.36-56.15,23.34-76.07c39.43-41.4,107.02-28.49,129.48,25.62
			c14.53,35.02,18.83,72.34,13.11,110.35c-5.85,38.85-33.08,63.55-71.77,66.96c-41.52,3.67-68.46-15.08-82.81-58.11
			C1152.94,966.44,1149.59,942.23,1149.35,920.95z"/>
		<path class="st1" d="M1011.32,1076.75c15.21-47.38,29.85-93.04,44.54-138.69c27.75-86.21,55.6-172.38,83.16-258.66
			c2.27-7.12,4.97-11.11,12.45-11.53c9.22-0.52,18.35-2.7,27.41-4.14c2.15,2.94,0.39,5.23-0.32,7.42
			c-42.01,130.69-84.12,261.35-126,392.09c-1.83,5.73-4.45,7.99-9.7,8.62C1032.81,1073.06,1022.83,1074.92,1011.32,1076.75z"/>
		<path class="st0" d="M1001.01,829.51c0,4.77,0.31,9.58-0.05,14.32c-2.03,26.99-14.88,39.98-39.66,40.35
			c-13.11,0.2-23.56-5.41-29.06-18.6c-14.11-33.79-19.21-69.39-14.23-106.16c2.57-18.99,13.57-28.18,32.91-30.85
			c16.44-2.27,28.33,4.95,36.01,21.86C994.76,767.68,1000.86,800.92,1001.01,829.51z"/>
		<path class="st0" d="M1275.88,957.65c-0.11,8.63-0.07,17.19-1.92,25.67c-3.92,17.99-13.19,26.25-33.29,29.18
			c-15.66,2.29-27.95-3.94-34.44-19.55c-13.57-32.61-17.94-67.16-14.06-102.58c2.26-20.67,13.01-30.11,33.82-33.23
			c16.3-2.44,28.51,5.15,35.96,23.27C1272.04,904.93,1274.93,931.11,1275.88,957.65z"/>
	</g>
</g>
<g id="favran.tj">
</g>
</svg>
