<?xml version="1.0" encoding="utf-8"?>
<!-- Generator: Adobe Illustrator 23.0.3, SVG Export Plug-In . SVG Version: 6.00 Build 0)  -->
<svg version="1.1" xmlns="http://www.w3.org/2000/svg" xmlns:xlink="http://www.w3.org/1999/xlink" x="0px" y="0px"
	 viewBox="0 0 2000 2000" style="enable-background:new 0 0 2000 2000;" xml:space="preserve">
<style type="text/css">
	.st0{fill:#FF0000;}
	.st1{fill:#FFFEFE;}
	.st2{fill:none;}
	.st3{font-family:'Tahoma';}
	.st4{font-size:200px;}
</style>
<g id="Фигура_4__x2B__Фигура_1__x2B___x25___x2B__Фигура_2__x2B__Фигура_3__x2B__Фигура_3_копия__x2B__Фигура_2_копия__x2B__Фигура_2_копия_2_xA0_Image_1_">
	<g>
		<path class="st0" d="M724.5,1083.85c3.88-100.75,8.43-200.7,11.39-300.7c2.97-100.09,4.37-200.22,6.47-301.4
			c21.32-6.64,44.07-13.72,66.5-20.7c-2.49-11.04-5.37-21.44-7.13-32.02c-6.72-40.35-2.31-79.12,20.35-113.97
			c17.57-27.01,42.67-42.29,75.91-40.96c19.44,0.77,36.79,8.3,52.17,19.71c32.01,23.74,50.29,56.58,60.69,94.36
			c0.17,0.63,0.1,1.32,0.16,2.19c-8.19,3.03-16.39,6.06-25.38,9.38c-3.54-8.6-7.11-17.61-10.95-26.51
			c-9.94-23.06-24.19-42.62-46.47-55.24c-28.52-16.15-62.21-9.31-81.35,18.23c-14.77,21.26-18.66,44.88-17.98,69.91
			c0.43,15.74,4.26,30.74,9.01,45.98c20.32-6.3,40.13-12.43,59.94-18.57c68.59-21.24,137.17-42.49,205.76-63.73
			c6.4-1.98,6.4-1.95,8.4,4.49c49.01,158.13,98.03,316.25,147.04,474.38c6.34,20.47,12.68,40.94,19.19,61.99
			C1093.82,968.33,909.6,1025.96,724.5,1083.85z M939.15,683.51c-0.46-3.93-1.02-11.07-2.19-18.1c-0.87-5.22-2.21-10.42-3.9-15.44
			c-8.25-24.64-24.59-34.95-50.36-32.04c-21.95,2.48-36.85,16.37-39.53,37.8c-2.31,18.48,0.1,36.58,7.48,53.72
			c12.63,29.32,52.29,36.68,75.28,14.28C936.4,713.5,938.84,700.54,939.15,683.51z M1096.6,753.4c-0.59-13.13-2.43-25.93-7.01-38.2
			c-8.67-23.2-24.15-32.7-48.77-30.25c-22.2,2.21-36.52,15-40.18,37.02c-2.8,16.88-0.38,33.52,5.18,49.61
			c8.15,23.55,23.66,33.5,48.47,31.47c21.09-1.73,35.72-13.69,40.25-33.38C1095.77,764.38,1095.95,758.84,1096.6,753.4z
			 M920.63,818.19c6.31-0.86,11.86-1.81,17.45-2.3c3.85-0.34,5.61-2.13,6.88-5.75c21.52-61.37,43.2-122.69,64.82-184.02
			c2.74-7.78,5.4-15.59,8.35-24.1c-6.33,0.91-11.86,2.01-17.45,2.42c-3.96,0.29-5.57,2.05-6.84,5.69
			c-21.74,61.99-43.65,123.93-65.51,185.89C925.81,803.18,923.35,810.35,920.63,818.19z"/>
		<path class="st0" d="M447.1,632.82c17.35,3.28,33.56,6.37,49.78,9.41c15.75,2.95,31.53,5.76,47.26,8.81
			c20.81,4.03,41.56,8.31,62.37,12.31c17.5,3.36,35.05,6.4,52.56,9.7c7.64,1.44,15.26,3.08,22.81,4.96
			c1.07,0.27,2.59,2.56,2.38,3.63c-8.66,45.98-5.54,92.59-7.14,138.91c-2.88,83.27-4.73,166.58-6.77,249.88
			c-0.51,20.79-0.08,41.61-0.08,62.97c233.91-73.89,468.69-148.06,704.25-222.48c2.41,7.55,4.83,14.73,6.8,22.03
			c0.17,0.65-2.48,2.59-4.09,3.1c-26.12,8.38-52.28,16.64-78.44,24.91c-208.78,65.97-417.56,131.94-626.33,197.94
			c-8.41,2.66-16.69,5.72-25.05,8.54c-1.21,0.41-2.53,0.5-4.6,0.9c4.09-156.86,8.16-313.21,12.24-469.92
			c-7.4-1.47-14.49-2.92-21.6-4.28c-19.99-3.82-39.97-7.66-59.97-11.4c-17.74-3.32-35.52-6.38-53.24-9.8
			c-23.22-4.48-46.41-9.16-69.58-13.89c-1.31-0.27-3.38-1.66-3.42-2.59C446.98,648.85,447.1,641.24,447.1,632.82z"/>
		<path class="st0" d="M1072.47,1141.23c-0.66,33.22-27.11,58.54-60.49,57.92c-31.84-0.6-57.52-27.67-56.92-59.99
			c0.61-32.42,27.58-57.82,60.74-57.2C1047.05,1082.55,1073.1,1109.8,1072.47,1141.23z"/>
		<path class="st0" d="M762.5,1241.4c0.18,32.14-26,58.58-58.19,58.76c-32.67,0.19-59.09-25.74-59.27-58.16
			c-0.18-32.33,26.18-58.98,58.42-59.06C735.98,1182.86,762.32,1208.94,762.5,1241.4z"/>
		<path class="st1" d="M939.15,683.51c-0.3,17.04-2.75,29.99-13.23,40.21c-22.99,22.41-62.65,15.04-75.28-14.28
			c-7.38-17.14-9.79-35.25-7.48-53.72c2.68-21.42,17.59-35.32,39.53-37.8c25.78-2.91,42.11,7.4,50.36,32.04
			c1.68,5.02,3.02,10.22,3.9,15.44C938.13,672.44,938.69,679.58,939.15,683.51z M915.14,689.52c-1.08-15.11-2.36-30.19-9.68-43.93
			c-4.02-7.54-10.72-10.12-18.87-9.19c-8.81,1.01-16.71,4.17-18.37,13.92c-1.29,7.59-1.94,15.62-0.95,23.2
			c1.38,10.62,4.17,21.12,7.11,31.45c1.64,5.75,5.74,10.14,11.97,11.71c14.4,3.64,25.69-3.65,28.07-18.19
			C914.9,695.57,914.91,692.55,915.14,689.52z"/>
		<path class="st1" d="M1096.6,753.4c-0.66,5.43-0.84,10.97-2.06,16.27c-4.53,19.69-19.16,31.65-40.25,33.38
			c-24.8,2.03-40.32-7.92-48.47-31.47c-5.57-16.09-7.99-32.73-5.18-49.61c3.66-22.02,17.98-34.81,40.18-37.02
			c24.62-2.45,40.1,7.05,48.77,30.25C1094.17,727.47,1096.01,740.28,1096.6,753.4z M1023.51,730.37c0.97,16.6,2.47,31.15,9.33,44.47
			c4.16,8.09,10.56,10.68,21.09,9.22c9.46-1.32,15.32-5.96,16.85-14.43c0.99-5.51,1.39-11.26,1.12-16.85
			c-0.66-13.84-2.61-27.5-9.21-39.99c-3.88-7.35-10.42-10.01-18.37-9.26c-9.04,0.85-16.67,4.16-19.05,13.95
			C1024.1,722.27,1023.9,727.3,1023.51,730.37z"/>
		<path class="st1" d="M920.63,818.19c2.72-7.84,5.18-15.01,7.71-22.17c21.86-61.95,43.76-123.89,65.51-185.89
			c1.27-3.63,2.88-5.4,6.84-5.69c5.58-0.41,11.12-1.51,17.45-2.42c-2.95,8.51-5.61,16.32-8.35,24.1
			c-21.62,61.34-43.3,122.65-64.82,184.02c-1.27,3.61-3.03,5.41-6.88,5.75C932.49,816.38,926.94,817.33,920.63,818.19z"/>
		<path class="st0" d="M915.14,689.52c-0.23,3.03-0.24,6.04-0.72,8.98c-2.38,14.53-13.67,21.83-28.07,18.19
			c-6.22-1.57-10.33-5.96-11.97-11.71c-2.94-10.33-5.73-20.83-7.11-31.45c-0.99-7.58-0.35-15.61,0.95-23.2
			c1.66-9.76,9.56-12.92,18.37-13.92c8.15-0.93,14.84,1.65,18.87,9.19C912.78,659.33,914.06,674.42,915.14,689.52z"/>
		<path class="st0" d="M1023.51,730.37c0.39-3.07,0.59-8.1,1.75-12.9c2.38-9.79,10.01-13.1,19.05-13.95
			c7.95-0.75,14.49,1.92,18.37,9.26c6.6,12.49,8.55,26.15,9.21,39.99c0.27,5.6-0.13,11.34-1.12,16.85
			c-1.52,8.48-7.38,13.12-16.85,14.43c-10.53,1.46-16.93-1.13-21.09-9.22C1025.98,761.51,1024.48,746.96,1023.51,730.37z"/>
	</g>
</g>
<g id="favran.tj">
	<rect x="602.73" y="1406.23" class="st2" width="1175.41" height="314.84"/>
	<text transform="matrix(1 0 0 1 602.73 1558.2264)" class="st0 st3 st4">favran.tj</text>
</g>
</svg>
